Coordinates
version=1
nRows=14
nColumns=40
inDegrees=yes

Units are S.I. units (second, meters, Newtons, ...)
If the header above contains a line with 'inDegrees', this indicates whether rotational values are in degrees (yes) or radians (no).

endheader
time	pelvis_tilt	pelvis_list	pelvis_rotation	pelvis_tx	pelvis_ty	pelvis_tz	hip_flexion_r	hip_adduction_r	hip_rotation_r	knee_angle_r	knee_angle_r_beta	ankle_angle_r	subtalar_angle_r	mtp_angle_r	hip_flexion_l	hip_adduction_l	hip_rotation_l	knee_angle_l	knee_angle_l_beta	ankle_angle_l	subtalar_angle_l	mtp_angle_l	lumbar_extension	lumbar_bending	lumbar_rotation	arm_flex_r	arm_add_r	arm_rot_r	elbow_flex_r	pro_sup_r	wrist_flex_r	wrist_dev_r	arm_flex_l	arm_add_l	arm_rot_l	elbow_flex_l	pro_sup_l	wrist_flex_l	wrist_dev_l
      0.42500000	     29.93963073	    -33.46004662	    -89.91126842	      0.13103837	      1.09206292	      0.10459164	    -17.75907410	    -35.82551834	     -1.80556303	     22.22475565	      0.38789516	     -7.81412333	      0.00000000	      0.00000000	     75.98510862	     16.34704375	    -32.35916722	     80.31034916	      1.40168002	    -36.67564940	      0.00000000	      0.00000000	    -49.97318846	    -25.17217550	    -14.70365057	     50.72379890	    -58.16662569	     10.12254878	    135.14928845	     69.51138205	      0.00000000	      0.00000000	     54.12982968	     -3.20483040	     24.44164449	    102.24503403	     72.66609383	      0.00000000	      0.00000000
      0.42777778	     30.10735400	    -33.69862031	    -89.91351615	      0.13224274	      1.09221340	      0.10527978	    -18.07049188	    -36.19082034	     -2.23434523	     22.16929743	      0.38692723	     -7.81957635	      0.00000000	      0.00000000	     76.65325516	     16.30954936	    -32.71022656	     80.45563994	      1.40421582	    -36.79296055	      0.00000000	      0.00000000	    -50.19386703	    -25.28966492	    -14.87381993	     51.25200278	    -58.35963912	     10.22317904	    135.00548279	     69.49934631	      0.00000000	      0.00000000	     54.57526231	     -3.06544938	     24.36353811	    102.02541910	     72.67208420	      0.00000000	      0.00000000
      0.43055556	     31.04195487	    -34.43485075	    -89.91201339	      0.13281662	      1.09314409	      0.10540669	    -18.80062218	    -37.36584393	     -2.47219861	     21.94245081	      0.38296801	     -8.13959575	      0.00000000	      0.00000000	     76.75153606	     16.17464730	    -33.75876398	     80.36257728	      1.40259157	    -36.79786777	      0.00000000	      0.00000000	    -51.08481281	    -26.12222037	    -15.59321066	     52.63728683	    -58.24555454	     11.18991820	    134.64369122	     69.44789840	      0.00000000	      0.00000000	     55.03267181	     -3.19902534	     24.03207322	    102.02599377	     72.79399611	      0.00000000	      0.00000000
      0.43333333	     31.29958495	    -34.78048780	    -89.91209572	      0.13342751	      1.09351040	      0.10567045	    -19.18776882	    -37.74958447	     -2.69127445	     21.86394996	      0.38159791	     -8.22385607	      0.00000000	      0.00000000	     76.97314686	     16.12083484	    -34.11973285	     80.39687013	      1.40319009	    -36.90278244	      0.00000000	      0.00000000	    -51.46226619	    -26.32735722	    -15.81883828	     53.21182670	    -58.31008233	     11.47017452	    134.48419357	     69.27634828	      0.00000000	      0.00000000	     55.34860536	     -3.15685012	     23.93167082	    101.92764942	     72.65693999	      0.00000000	      0.00000000
      0.43611111	     31.87461438	    -35.30789412	    -89.91229493	      0.13416336	      1.09412751	      0.10613829	    -19.78241659	    -38.52112025	     -2.99415652	     21.67598597	      0.37831732	     -8.41074044	      0.00000000	      0.00000000	     77.28946488	     15.99768984	    -34.81941072	     80.43693240	      1.40388931	    -36.95568329	      0.00000000	      0.00000000	    -52.06176749	    -26.83855601	    -16.30466470	     54.15370462	    -58.27248909	     12.04527714	    134.20947203	     69.35435519	      0.00000000	      0.00000000	     55.78337135	     -3.19059532	     23.72146930	    101.80226023	     72.78474431	      0.00000000	      0.00000000
      0.43888889	     32.40189582	    -35.77650500	    -89.91279646	      0.13512297	      1.09455348	      0.10660579	    -20.28201418	    -39.26741435	     -3.31896936	     21.52376554	      0.37566058	     -8.67028951	      0.00000000	      0.00000000	     77.69497754	     15.86741953	    -35.48510565	     80.51275651	      1.40521269	    -36.99210464	      0.00000000	      0.00000000	    -52.59328344	    -27.27793500	    -16.77168759	     55.15837361	    -58.28568567	     12.72173358	    133.92421505	     68.86025303	      0.00000000	      0.00000000	     56.20893036	     -3.23158320	     23.54053311	    101.73446533	     72.16094058	      0.00000000	      0.00000000
      0.44166667	     32.84751266	    -36.33237780	    -89.91284876	      0.13585135	      1.09515486	      0.10699521	    -20.93620482	    -39.88429911	     -3.63691219	     21.36950049	      0.37296814	     -8.70704386	      0.00000000	      0.00000000	     77.97323226	     15.72891157	    -36.05562093	     80.64756636	      1.40756557	    -37.00846923	      0.00000000	      0.00000000	    -53.21315264	    -27.65146665	    -17.16602471	     55.97164131	    -58.28362647	     13.13004053	    133.68066972	     69.00409566	      0.00000000	      0.00000000	     56.66671732	     -3.24581791	     23.38504094	    101.59672363	     72.31664994	      0.00000000	      0.00000000
      0.44444444	     32.89376127	    -36.49575829	    -89.91405109	      0.13655329	      1.09529167	      0.10739606	    -21.14507267	    -40.02367696	     -3.79201994	     21.35445501	      0.37270555	     -8.70386227	      0.00000000	      0.00000000	     78.35415072	     15.66736983	    -36.21623892	     80.74045800	      1.40918683	    -37.14891993	      0.00000000	      0.00000000	    -53.37266953	    -27.67076802	    -17.27477411	     56.21653696	    -58.33270186	     13.09624478	    133.59239397	     69.04120474	      0.00000000	      0.00000000	     56.94706709	     -3.18152089	     23.29315680	    101.45974435	     72.34913080	      0.00000000	      0.00000000
      0.44722222	     33.50560057	    -37.19422906	    -89.91337703	      0.13724021	      1.09602811	      0.10766677	    -21.95630841	    -40.83312455	     -4.17820245	     21.06896578	      0.36772282	     -9.01864988	      0.00000000	      0.00000000	     78.45832072	     15.48132886	    -36.94082207	     80.82895215	      1.41073135	    -37.09140449	      0.00000000	      0.00000000	    -54.15712201	    -28.18232706	    -17.81923455	     57.44556581	    -58.29201902	     14.02197313	    133.20372392	     68.86226838	      0.00000000	      0.00000000	     57.38831407	     -3.27181427	     23.07538932	    101.36644143	     71.93094364	      0.00000000	      0.00000000
      0.45000000	     33.79640503	    -37.75711549	    -89.91367716	      0.13821489	      1.09655158	      0.10806085	    -22.66770288	    -41.28714427	     -4.54233582	     20.89015110	      0.36460192	     -9.04323655	      0.00000000	      0.00000000	     78.70292025	     15.36852280	    -37.36805493	     80.97476874	      1.41327633	    -37.11387191	      0.00000000	      0.00000000	    -54.75453375	    -28.38272776	    -18.08137718	     58.24014681	    -58.45953419	     14.43633826	    132.98122884	     68.84447106	      0.00000000	      0.00000000	     57.85877604	     -3.19574013	     22.96932385	    101.15259310	     71.85550894	      0.00000000	      0.00000000
      0.45277778	     34.33809827	    -38.16119655	    -89.91401000	      0.13908922	      1.09688783	      0.10851144	    -23.07696037	    -42.03838471	     -4.89754492	     20.74019126	      0.36198462	     -9.38713132	      0.00000000	      0.00000000	     79.13558912	     15.13772699	    -38.01935999	     81.13316461	      1.41604085	    -37.04416337	      0.00000000	      0.00000000	    -55.22020086	    -28.84560539	    -18.59624478	     59.17511324	    -58.31031047	     15.05707858	    132.59826778	     69.34650326	      0.00000000	      0.00000000	     58.24536680	     -3.30900035	     22.71177548	    101.06199234	     72.35119467	      0.00000000	      0.00000000
      0.45555556	     34.56212528	    -38.65914523	    -89.91535459	      0.14003783	      1.09739594	      0.10894274	    -23.73798815	    -42.40950105	     -5.21982187	     20.57293175	      0.35906540	     -9.37942020	      0.00000000	      0.00000000	     79.41672501	     15.01897162	    -38.36177018	     81.28024540	      1.41860790	    -37.07754145	      0.00000000	      0.00000000	    -55.74181648	    -28.98410563	    -18.91494880	     59.94195122	    -58.29794856	     15.49037691	    132.32921034	     69.29787735	      0.00000000	      0.00000000	     58.64446749	     -3.34012543	     22.55304764	    100.93905466	     72.10520415	      0.00000000	      0.00000000
      0.45833333	     34.62538910	    -38.83010833	    -89.91627094	      0.14077256	      1.09746940	      0.10942891	    -23.97731448	    -42.57076008	     -5.44190616	     20.54630962	      0.35860075	     -9.34882215	      0.00000000	      0.00000000	     79.80593094	     14.94623988	    -38.52116108	     81.42642508	      1.42115922	    -37.16768718	      0.00000000	      0.00000000	    -55.89182591	    -29.02241409	    -19.01607287	     60.21084655	    -58.36377834	     15.55722112	    132.22249278	     69.41584019	      0.00000000	      0.00000000	     58.92551214	     -3.29320491	     22.49809928	    100.75111383	     72.20703097	      0.00000000	      0.00000000
      0.46111111	     34.84262946	    -39.36195756	    -89.91650578	      0.14179856	      1.09797490	      0.10971889	    -24.66823390	    -42.94024168	     -5.78981404	     20.35201741	      0.35520971	     -9.45602656	      0.00000000	      0.00000000	     80.04464286	     14.82359992	    -38.84455611	     81.61806957	      1.42450404	    -37.10590919	      0.00000000	      0.00000000	    -56.46343124	    -29.13622117	    -19.42186117	     61.22794679	    -58.31593390	     16.23228634	    131.87463472	     69.62921102	      0.00000000	      0.00000000	     59.33896617	     -3.41192796	     22.27454073	    100.65667889	     72.17593160	      0.00000000	      0.00000000
